<svg width="20" height="20" viewBox="0 0 20 20" fill="none" xmlns="http://www.w3.org/2000/svg">
<path d="M10.8334 17.5L12.5 16.6667L14.1667 17.5V11.6667H10.8334M14.1667 7.5V5.83333L12.5 6.66667L10.8334 5.83333V7.5L9.16669 8.33333L10.8334 9.16667V10.8333L12.5 10L14.1667 10.8333V9.16667L15.8334 8.33333M16.6667 2.5H3.33335C2.89133 2.5 2.4674 2.67559 2.15484 2.98816C1.84228 3.30072 1.66669 3.72464 1.66669 4.16667V12.5C1.66669 12.942 1.84228 13.366 2.15484 13.6785C2.4674 13.9911 2.89133 14.1667 3.33335 14.1667H9.16669V12.5H3.33335V4.16667H16.6667V12.5H15.8334V14.1667H16.6667C17.1087 14.1667 17.5326 13.9911 17.8452 13.6785C18.1578 13.366 18.3334 12.942 18.3334 12.5V4.16667C18.3334 3.72464 18.1578 3.30072 17.8452 2.98816C17.5326 2.67559 17.1087 2.5 16.6667 2.5ZM9.16669 6.66667H4.16669V5H9.16669M7.50002 9.16667H4.16669V7.5H7.50002M9.16669 11.6667H4.16669V10H9.16669V11.6667Z" fill="url(#paint0_linear_5_2)"/>
<defs>
<linearGradient id="paint0_linear_5_2" x1="10" y1="2.5" x2="10" y2="17.5" gradientUnits="userSpaceOnUse">
<stop stop-color="#FAD638"/>
<stop offset="1" stop-color="#DAA00C"/>
</linearGradient>
</defs>
</svg>
