<svg width="20" height="20" viewBox="0 0 20 20" fill="none" xmlns="http://www.w3.org/2000/svg">
<path d="M11.6667 7.33325C11.6667 7.24992 11.6945 7.17006 11.75 7.09367C11.8056 7.01728 11.8681 6.9652 11.9375 6.93742C12.3542 6.78464 12.7813 6.66659 13.2188 6.58325C13.6563 6.49992 14.1112 6.45825 14.5834 6.45825C14.8889 6.45825 15.1875 6.47561 15.4792 6.51034C15.7709 6.54506 16.0556 6.59714 16.3334 6.66659C16.4167 6.69436 16.4931 6.74645 16.5625 6.82284C16.632 6.89922 16.6667 6.98603 16.6667 7.08325C16.6667 7.23603 16.6146 7.35409 16.5105 7.43742C16.4063 7.52075 16.2778 7.54159 16.125 7.49992C15.8889 7.43047 15.6424 7.37839 15.3855 7.34367C15.1285 7.30895 14.8612 7.29159 14.5834 7.29159C14.1806 7.29159 13.7917 7.32978 13.4167 7.40617C13.0417 7.48256 12.6737 7.59714 12.3125 7.74992C12.1181 7.81936 11.9618 7.81589 11.8438 7.7395C11.7257 7.66311 11.6667 7.5277 11.6667 7.33325ZM11.6667 11.9166C11.6667 11.8333 11.6945 11.7499 11.75 11.6666C11.8056 11.5833 11.8681 11.5277 11.9375 11.4999C12.3542 11.3471 12.7813 11.2326 13.2188 11.1562C13.6563 11.0798 14.1112 11.0416 14.5834 11.0416C14.8889 11.0416 15.1875 11.0589 15.4792 11.0937C15.7709 11.1284 16.0556 11.1805 16.3334 11.2499C16.4167 11.2777 16.4931 11.3298 16.5625 11.4062C16.632 11.4826 16.6667 11.5694 16.6667 11.6666C16.6667 11.8194 16.6146 11.9374 16.5105 12.0208C16.4063 12.1041 16.2778 12.1249 16.125 12.0833C15.8889 12.0138 15.6424 11.9617 15.3855 11.927C15.1285 11.8923 14.8612 11.8749 14.5834 11.8749C14.1806 11.8749 13.7917 11.9096 13.4167 11.9791C13.0417 12.0485 12.6737 12.1596 12.3125 12.3124C12.1181 12.3819 11.9618 12.3819 11.8438 12.3124C11.7257 12.243 11.6667 12.111 11.6667 11.9166ZM11.6667 9.62492C11.6667 9.54159 11.6945 9.46172 11.75 9.38534C11.8056 9.30895 11.8681 9.25686 11.9375 9.22909C12.3542 9.07631 12.7813 8.95825 13.2188 8.87492C13.6563 8.79159 14.1112 8.74992 14.5834 8.74992C14.8889 8.74992 15.1875 8.76728 15.4792 8.802C15.7709 8.83672 16.0556 8.88881 16.3334 8.95825C16.4167 8.98603 16.4931 9.03811 16.5625 9.1145C16.632 9.19089 16.6667 9.2777 16.6667 9.37492C16.6667 9.5277 16.6146 9.64575 16.5105 9.72909C16.4063 9.81242 16.2778 9.83325 16.125 9.79159C15.8889 9.72214 15.6424 9.67006 15.3855 9.63534C15.1285 9.60061 14.8612 9.58325 14.5834 9.58325C14.1806 9.58325 13.7917 9.62145 13.4167 9.69784C13.0417 9.77422 12.6737 9.88881 12.3125 10.0416C12.1181 10.111 11.9618 10.1076 11.8438 10.0312C11.7257 9.95478 11.6667 9.81936 11.6667 9.62492ZM10.6667 14.7916C11.3612 14.4444 12.0417 14.1839 12.7084 14.0103C13.375 13.8367 14.0834 13.7499 14.8334 13.7499C15.3612 13.7499 15.9063 13.7916 16.4688 13.8749C17.0313 13.9583 17.5139 14.0694 17.9167 14.2083V5.27075C17.4445 5.03464 16.9445 4.86103 16.4167 4.74992C15.8889 4.63881 15.3612 4.58325 14.8334 4.58325C14.0834 4.58325 13.3577 4.69784 12.6563 4.927C11.9549 5.15617 11.2917 5.47909 10.6667 5.89575V14.7916ZM10.0417 16.4374C9.9306 16.4374 9.8299 16.427 9.73962 16.4062C9.64935 16.3853 9.56949 16.3471 9.50004 16.2916C8.84726 15.8888 8.15282 15.5763 7.41671 15.3541C6.6806 15.1319 5.9306 15.0208 5.16671 15.0208C4.65282 15.0208 4.15282 15.0833 3.66671 15.2083C3.1806 15.3333 2.69449 15.486 2.20837 15.6666C1.88893 15.8194 1.5799 15.7985 1.28129 15.6041C0.98268 15.4096 0.833374 15.1319 0.833374 14.7708V5.12492C0.833374 4.91659 0.881985 4.72561 0.979207 4.552C1.07643 4.37839 1.22226 4.24297 1.41671 4.14575C2.00004 3.86797 2.60768 3.66311 3.23962 3.53117C3.87157 3.39922 4.51393 3.33325 5.16671 3.33325C6.04171 3.33325 6.8924 3.45131 7.71879 3.68742C8.54518 3.92353 9.31949 4.28464 10.0417 4.77075C10.75 4.28464 11.5105 3.92353 12.323 3.68742C13.1355 3.45131 13.9723 3.33325 14.8334 3.33325C15.4862 3.33325 16.125 3.39922 16.75 3.53117C17.375 3.66311 17.9792 3.86797 18.5625 4.14575C18.757 4.24297 18.9063 4.37839 19.0105 4.552C19.1146 4.72561 19.1667 4.91659 19.1667 5.12492V14.7708C19.1667 15.1596 19.0105 15.4548 18.698 15.6562C18.3855 15.8576 18.0764 15.861 17.7709 15.6666C17.2987 15.4721 16.8195 15.3159 16.3334 15.1978C15.8473 15.0798 15.3473 15.0208 14.8334 15.0208C14.0834 15.0208 13.3473 15.1319 12.625 15.3541C11.9028 15.5763 11.2223 15.8888 10.5834 16.2916C10.5139 16.3471 10.4341 16.3853 10.3438 16.4062C10.2535 16.427 10.1528 16.4374 10.0417 16.4374Z" fill="#D6B110"/>
</svg>
