<svg width="45" height="45" viewBox="0 0 45 45" fill="none" xmlns="http://www.w3.org/2000/svg">
<path d="M22.4908 29.0236C22.2564 29.0236 22.0306 28.9787 21.8134 28.8889C21.5962 28.7991 21.391 28.6592 21.1976 28.4693L13.828 21.0997C13.4585 20.7301 13.2815 20.2882 13.2971 19.7739C13.3128 19.2596 13.5053 18.8177 13.8749 18.4482C14.2445 18.0786 14.682 17.8938 15.1875 17.8938C15.6929 17.8938 16.1304 18.0786 16.5 18.4482L20.6433 22.6384V7.50185C20.6433 6.98198 20.823 6.53815 21.1824 6.17037C21.5418 5.80256 21.9838 5.61865 22.5082 5.61865C23.0326 5.61865 23.4718 5.80256 23.8257 6.17037C24.1797 6.53815 24.3566 6.98198 24.3566 7.50185V22.6384L28.5468 18.4482C28.9164 18.0786 29.3539 17.8938 29.8593 17.8938C30.3648 17.8938 30.8023 18.0786 31.1719 18.4482C31.5414 18.8177 31.7262 19.2596 31.7262 19.7739C31.7262 20.2882 31.5414 20.7301 31.1719 21.0997L23.8023 28.4693C23.6078 28.6592 23.3991 28.7991 23.1764 28.8889C22.9537 28.9787 22.7251 29.0236 22.4908 29.0236ZM9.915 38.7717C8.89916 38.7717 8.02632 38.4029 7.29647 37.6652C6.5666 36.9276 6.20166 36.0454 6.20166 35.0186V28.9931C6.20166 28.471 6.38138 28.031 6.74082 27.6732C7.10022 27.3153 7.54214 27.1364 8.06658 27.1364C8.59099 27.1364 9.03016 27.3153 9.3841 27.6732C9.73804 28.031 9.915 28.4701 9.915 28.9903V35.0318H35.0584V28.9903C35.0584 28.4701 35.2381 28.031 35.5975 27.6732C35.957 27.3153 36.3989 27.1364 36.9233 27.1364C37.4477 27.1364 37.8869 27.3153 38.2409 27.6732C38.5948 28.031 38.7718 28.4701 38.7718 28.9903V35.0318C38.7718 36.0549 38.4022 36.934 37.663 37.6691C36.9239 38.4042 36.0557 38.7717 35.0584 38.7717H9.915Z" fill="#3B3B1B"/>
</svg>
