<svg width="40" height="40" viewBox="0 0 40 40" fill="none" xmlns="http://www.w3.org/2000/svg">
<path d="M5.83337 33.3334C5.16671 33.3334 4.58337 33.0834 4.08337 32.5834C3.58337 32.0834 3.33337 31.5001 3.33337 30.8334V9.16675C3.33337 8.50008 3.58337 7.91675 4.08337 7.41675C4.58337 6.91675 5.16671 6.66675 5.83337 6.66675H34.1667C34.8334 6.66675 35.4167 6.91675 35.9167 7.41675C36.4167 7.91675 36.6667 8.50008 36.6667 9.16675V30.8334C36.6667 31.5001 36.4167 32.0834 35.9167 32.5834C35.4167 33.0834 34.8334 33.3334 34.1667 33.3334H5.83337ZM34.1667 11.4584L20.6667 20.2917C20.5556 20.3473 20.4514 20.3959 20.3542 20.4376C20.257 20.4792 20.1389 20.5001 20 20.5001C19.8612 20.5001 19.7431 20.4792 19.6459 20.4376C19.5487 20.3959 19.4445 20.3473 19.3334 20.2917L5.83337 11.4584V30.8334H34.1667V11.4584ZM20 18.2501L34 9.16675H6.04171L20 18.2501ZM5.83337 11.7501V10.1119V10.1424V9.16675V10.1251V10.0871V11.7501Z" fill="#E3BC10"/>
</svg>
