<svg width="20" height="20" viewBox="0 0 20 20" fill="none" xmlns="http://www.w3.org/2000/svg">
<path d="M11.0625 18.3334C10.7431 18.3334 10.5105 18.2292 10.3646 18.0209C10.2188 17.8126 10.2014 17.5556 10.3125 17.2501L13.375 9.12508C13.4584 8.90286 13.6112 8.71536 13.8334 8.56258C14.0556 8.4098 14.2848 8.33341 14.5209 8.33341C14.757 8.33341 14.9896 8.4098 15.2188 8.56258C15.448 8.71536 15.6042 8.90286 15.6875 9.12508L18.8125 17.1667C18.9375 17.4862 18.9237 17.7605 18.7709 17.9897C18.6181 18.2188 18.3612 18.3334 18 18.3334C17.8473 18.3334 17.7014 18.2848 17.5625 18.1876C17.4237 18.0904 17.3264 17.9654 17.2709 17.8126L16.5834 15.7084H12.5834L11.7917 17.8334C11.7362 17.9723 11.6389 18.0904 11.5 18.1876C11.3612 18.2848 11.2153 18.3334 11.0625 18.3334ZM13.0417 14.2501H16L14.5417 10.2084H14.5L13.0417 14.2501ZM6.02087 7.12508C6.22921 7.48619 6.45837 7.83689 6.70837 8.17716C6.95837 8.51744 7.22921 8.86814 7.52087 9.22925C8.14587 8.57647 8.66671 7.89939 9.08338 7.198C9.50004 6.49661 9.85421 5.76397 10.1459 5.00008H1.66671C1.4306 5.00008 1.23268 4.92022 1.07296 4.7605C0.913235 4.60078 0.833374 4.40286 0.833374 4.16675C0.833374 3.93064 0.913235 3.73272 1.07296 3.573C1.23268 3.41328 1.4306 3.33341 1.66671 3.33341H6.66671V2.50008C6.66671 2.26397 6.74657 2.06605 6.90629 1.90633C7.06601 1.74661 7.26393 1.66675 7.50004 1.66675C7.73615 1.66675 7.93407 1.74661 8.09379 1.90633C8.25351 2.06605 8.33337 2.26397 8.33337 2.50008V3.33341H13.3334C13.5695 3.33341 13.7674 3.41328 13.9271 3.573C14.0868 3.73272 14.1667 3.93064 14.1667 4.16675C14.1667 4.40286 14.0868 4.60078 13.9271 4.7605C13.7674 4.92022 13.5695 5.00008 13.3334 5.00008H11.8125C11.507 5.95841 11.1007 6.89939 10.5938 7.823C10.0868 8.74661 9.46532 9.62508 8.72921 10.4584L10.7709 12.5209L10.1459 14.2084L7.50004 11.6667L3.89587 15.2709C3.7431 15.4237 3.5556 15.5001 3.33337 15.5001C3.11115 15.5001 2.92365 15.4167 2.77087 15.2501C2.60421 15.0973 2.52087 14.9098 2.52087 14.6876C2.52087 14.4654 2.60421 14.2709 2.77087 14.1042L6.43754 10.4376C6.07643 10.007 5.73615 9.573 5.41671 9.1355C5.09726 8.698 4.8056 8.25008 4.54171 7.79175C4.37504 7.48619 4.36115 7.2223 4.50004 7.00008C4.63893 6.77786 4.88893 6.66675 5.25004 6.66675C5.40282 6.66675 5.55212 6.71189 5.69796 6.80216C5.84379 6.89244 5.95143 7.00008 6.02087 7.12508Z" fill="#E3BC10"/>
</svg>
