<svg width="40" height="40" viewBox="0 0 40 40" fill="none" xmlns="http://www.w3.org/2000/svg">
<path d="M20 19.9583C18.1666 19.9583 16.6666 19.3749 15.5 18.2083C14.3333 17.0416 13.75 15.5416 13.75 13.7083C13.75 11.8749 14.3333 10.3749 15.5 9.20825C16.6666 8.04159 18.1666 7.45825 20 7.45825C21.8333 7.45825 23.3333 8.04159 24.5 9.20825C25.6666 10.3749 26.25 11.8749 26.25 13.7083C26.25 15.5416 25.6666 17.0416 24.5 18.2083C23.3333 19.3749 21.8333 19.9583 20 19.9583ZM30.8333 33.3333H9.16663C8.47913 33.3333 7.89058 33.0885 7.401 32.5989C6.91142 32.1093 6.66663 31.5208 6.66663 30.8333V29.4166C6.66663 28.361 6.93051 27.4583 7.45829 26.7083C7.98607 25.9583 8.66663 25.3888 9.49996 24.9999C11.3611 24.1666 13.1458 23.5416 14.8541 23.1249C16.5625 22.7083 18.2777 22.4999 20 22.4999C21.7222 22.4999 23.4305 22.7152 25.125 23.1458C26.8194 23.5763 28.5961 24.1971 30.455 25.008C31.3245 25.4004 32.0216 25.9694 32.5463 26.7149C33.0709 27.4605 33.3333 28.361 33.3333 29.4166V30.8333C33.3333 31.5208 33.0885 32.1093 32.5989 32.5989C32.1093 33.0885 31.5208 33.3333 30.8333 33.3333ZM9.16663 30.8333H30.8333V29.4166C30.8333 28.9721 30.7013 28.5485 30.4375 28.1458C30.1736 27.743 29.8472 27.4444 29.4583 27.2499C27.6805 26.3888 26.0555 25.7985 24.5833 25.4791C23.1111 25.1596 21.5833 24.9999 20 24.9999C18.4166 24.9999 16.875 25.1596 15.375 25.4791C13.875 25.7985 12.25 26.3888 10.5 27.2499C10.1111 27.4444 9.79163 27.743 9.54163 28.1458C9.29163 28.5485 9.16663 28.9721 9.16663 29.4166V30.8333ZM20 17.4583C21.0833 17.4583 21.9791 17.1041 22.6875 16.3958C23.3958 15.6874 23.75 14.7916 23.75 13.7083C23.75 12.6249 23.3958 11.7291 22.6875 11.0208C21.9791 10.3124 21.0833 9.95825 20 9.95825C18.9166 9.95825 18.0208 10.3124 17.3125 11.0208C16.6041 11.7291 16.25 12.6249 16.25 13.7083C16.25 14.7916 16.6041 15.6874 17.3125 16.3958C18.0208 17.1041 18.9166 17.4583 20 17.4583Z" fill="#E3BC10"/>
</svg>
