<svg width="35" height="35" viewBox="0 0 35 35" fill="none" xmlns="http://www.w3.org/2000/svg">
<path d="M17.5 2.9166C11.8562 2.9166 7.29163 7.48118 7.29163 13.1249C7.29163 20.7812 17.5 32.0833 17.5 32.0833C17.5 32.0833 27.7083 20.7812 27.7083 13.1249C27.7083 7.48118 23.1437 2.9166 17.5 2.9166ZM17.5 16.7708C16.533 16.7708 15.6057 16.3866 14.922 15.7029C14.2382 15.0192 13.8541 14.0919 13.8541 13.1249C13.8541 12.158 14.2382 11.2307 14.922 10.5469C15.6057 9.86321 16.533 9.47909 17.5 9.47909C18.4669 9.47909 19.3942 9.86321 20.078 10.5469C20.7617 11.2307 21.1458 12.158 21.1458 13.1249C21.1458 14.0919 20.7617 15.0192 20.078 15.7029C19.3942 16.3866 18.4669 16.7708 17.5 16.7708Z" fill="#E6BF18"/>
</svg>
