<svg width="304" height="50" viewBox="0 0 304 50" fill="none" xmlns="http://www.w3.org/2000/svg">
<path d="M30.2 6.35L20.55 41H10.35L0.349976 6.35H8.99998L15.6 34.6L21.8 6.35H30.2Z" fill="#131312"/>
<path d="M40.5156 14.45V41H32.6156V14.45H40.5156ZM36.5156 0.449997C37.8823 0.449997 38.9989 0.883331 39.8656 1.75C40.7656 2.58333 41.2156 3.65 41.2156 4.95C41.2156 6.25 40.7656 7.33333 39.8656 8.2C38.9989 9.03333 37.8823 9.45 36.5156 9.45C35.1489 9.45 34.0323 9.03333 33.1656 8.2C32.2989 7.33333 31.8656 6.25 31.8656 4.95C31.8656 3.65 32.2989 2.58333 33.1656 1.75C34.0323 0.883331 35.1489 0.449997 36.5156 0.449997Z" fill="#131312"/>
<path d="M63.3769 39.75C62.4103 40.4167 61.2769 40.9333 59.9769 41.3C58.7103 41.6667 57.4436 41.85 56.1769 41.85C50.3769 41.8167 47.4769 38.6167 47.4769 32.25V19.95H43.7269V14.45H47.4769V8.7L55.3769 7.8V14.45H61.4769L60.6269 19.95H55.3769V32.15C55.3769 33.3833 55.5769 34.2667 55.9769 34.8C56.3769 35.3333 57.0103 35.6 57.8769 35.6C58.7769 35.6 59.7269 35.3167 60.7269 34.75L63.3769 39.75Z" fill="#131312"/>
<path d="M76.6351 13.6C80.7018 13.6 83.8851 14.85 86.1851 17.35C88.4851 19.8167 89.6351 23.2833 89.6351 27.75C89.6351 30.5833 89.1018 33.0667 88.0351 35.2C87.0018 37.3 85.5018 38.9333 83.5351 40.1C81.6018 41.2667 79.3018 41.85 76.6351 41.85C72.6018 41.85 69.4185 40.6167 67.0851 38.15C64.7851 35.65 63.6351 32.1667 63.6351 27.7C63.6351 24.8667 64.1518 22.4 65.1851 20.3C66.2518 18.1667 67.7518 16.5167 69.6851 15.35C71.6518 14.1833 73.9685 13.6 76.6351 13.6ZM76.6351 19.4C75.0351 19.4 73.8351 20.0833 73.0351 21.45C72.2351 22.7833 71.8351 24.8667 71.8351 27.7C71.8351 30.6 72.2185 32.7167 72.9851 34.05C73.7851 35.3833 75.0018 36.05 76.6351 36.05C78.2351 36.05 79.4351 35.3833 80.2351 34.05C81.0351 32.6833 81.4351 30.5833 81.4351 27.75C81.4351 24.85 81.0351 22.7333 80.2351 21.4C79.4685 20.0667 78.2685 19.4 76.6351 19.4Z" fill="#131312"/>
<path d="M108.734 13.7C109.701 13.7 110.584 13.8167 111.384 14.05L110.134 21.7C109.134 21.4667 108.334 21.35 107.734 21.35C106.168 21.35 104.968 21.9 104.134 23C103.334 24.0667 102.701 25.6833 102.234 27.85V41H94.3344V14.45H101.234L101.884 19.6C102.484 17.7667 103.384 16.3333 104.584 15.3C105.818 14.2333 107.201 13.7 108.734 13.7Z" fill="#131312"/>
<path d="M152.368 6.35L142.718 41H132.518L122.518 6.35H131.168L137.768 34.6L143.968 6.35H152.368Z" fill="#131312"/>
<path d="M162.684 14.45V41H154.784V14.45H162.684ZM158.684 0.449997C160.05 0.449997 161.167 0.883331 162.034 1.75C162.934 2.58333 163.384 3.65 163.384 4.95C163.384 6.25 162.934 7.33333 162.034 8.2C161.167 9.03333 160.05 9.45 158.684 9.45C157.317 9.45 156.2 9.03333 155.334 8.2C154.467 7.33333 154.034 6.25 154.034 4.95C154.034 3.65 154.467 2.58333 155.334 1.75C156.2 0.883331 157.317 0.449997 158.684 0.449997Z" fill="#131312"/>
<path d="M189.995 33.3C189.995 34.3 190.128 35.0333 190.395 35.5C190.695 35.9667 191.162 36.3167 191.795 36.55L190.145 41.7C188.512 41.5667 187.178 41.2167 186.145 40.65C185.112 40.05 184.312 39.1167 183.745 37.85C182.012 40.5167 179.345 41.85 175.745 41.85C173.112 41.85 171.012 41.0833 169.445 39.55C167.878 38.0167 167.095 36.0167 167.095 33.55C167.095 30.65 168.162 28.4333 170.295 26.9C172.428 25.3667 175.512 24.6 179.545 24.6H182.245V23.45C182.245 21.8833 181.912 20.8167 181.245 20.25C180.578 19.65 179.412 19.35 177.745 19.35C176.878 19.35 175.828 19.4833 174.595 19.75C173.362 19.9833 172.095 20.3167 170.795 20.75L168.995 15.55C170.662 14.9167 172.362 14.4333 174.095 14.1C175.862 13.7667 177.495 13.6 178.995 13.6C182.795 13.6 185.578 14.3833 187.345 15.95C189.112 17.5167 189.995 19.8667 189.995 23V33.3ZM178.045 36.2C179.845 36.2 181.245 35.35 182.245 33.65V28.95H180.295C178.495 28.95 177.145 29.2667 176.245 29.9C175.378 30.5333 174.945 31.5167 174.945 32.85C174.945 33.9167 175.212 34.75 175.745 35.35C176.312 35.9167 177.078 36.2 178.045 36.2Z" fill="#131312"/>
<path d="M211.837 13.6C214.137 13.6 215.937 14.3 217.237 15.7C218.537 17.1 219.187 19.0667 219.187 21.6V41H211.287V22.95C211.287 21.6167 211.071 20.7 210.637 20.2C210.237 19.6667 209.621 19.4 208.787 19.4C207.187 19.4 205.654 20.55 204.187 22.85V41H196.287V14.45H203.187L203.737 17.6C204.871 16.2667 206.087 15.2667 207.387 14.6C208.721 13.9333 210.204 13.6 211.837 13.6Z" fill="#131312"/>
<path d="M240.695 13.6C242.995 13.6 244.795 14.3 246.095 15.7C247.395 17.1 248.045 19.0667 248.045 21.6V41H240.145V22.95C240.145 21.6167 239.928 20.7 239.495 20.2C239.095 19.6667 238.478 19.4 237.645 19.4C236.045 19.4 234.512 20.55 233.045 22.85V41H225.145V14.45H232.045L232.595 17.6C233.728 16.2667 234.945 15.2667 236.245 14.6C237.578 13.9333 239.062 13.6 240.695 13.6Z" fill="#131312"/>
<path d="M275.102 33.3C275.102 34.3 275.236 35.0333 275.502 35.5C275.802 35.9667 276.269 36.3167 276.902 36.55L275.252 41.7C273.619 41.5667 272.286 41.2167 271.252 40.65C270.219 40.05 269.419 39.1167 268.852 37.85C267.119 40.5167 264.452 41.85 260.852 41.85C258.219 41.85 256.119 41.0833 254.552 39.55C252.986 38.0167 252.202 36.0167 252.202 33.55C252.202 30.65 253.269 28.4333 255.402 26.9C257.536 25.3667 260.619 24.6 264.652 24.6H267.352V23.45C267.352 21.8833 267.019 20.8167 266.352 20.25C265.686 19.65 264.519 19.35 262.852 19.35C261.986 19.35 260.936 19.4833 259.702 19.75C258.469 19.9833 257.202 20.3167 255.902 20.75L254.102 15.55C255.769 14.9167 257.469 14.4333 259.202 14.1C260.969 13.7667 262.602 13.6 264.102 13.6C267.902 13.6 270.686 14.3833 272.452 15.95C274.219 17.5167 275.102 19.8667 275.102 23V33.3ZM263.152 36.2C264.952 36.2 266.352 35.35 267.352 33.65V28.95H265.402C263.602 28.95 262.252 29.2667 261.352 29.9C260.486 30.5333 260.052 31.5167 260.052 32.85C260.052 33.9167 260.319 34.75 260.852 35.35C261.419 35.9167 262.186 36.2 263.152 36.2Z" fill="#131312"/>
<path d="M278.795 49.55V43.35H303.795V49.55H278.795Z" fill="#FAD638"/>
</svg>
