<svg width="40" height="41" viewBox="0 0 40 41" fill="none" xmlns="http://www.w3.org/2000/svg">
<path d="M7.71201 36.0888C6.80903 36.0888 6.03317 35.7644 5.38442 35.1157C4.73564 34.4669 4.41125 33.691 4.41125 32.7881V8.21199C4.41125 7.30254 4.73564 6.52113 5.38442 5.86774C6.03317 5.21438 6.80903 4.8877 7.71201 4.8877H17.4747C17.9388 4.8877 18.3298 5.05204 18.6479 5.38074C18.966 5.70946 19.125 6.10621 19.125 6.57099C19.125 7.03576 18.966 7.42546 18.6479 7.74007C18.3298 8.05468 17.9388 8.21199 17.4747 8.21199H7.71201V32.7881H32.2881V23.0254C32.2881 22.5613 32.4478 22.1702 32.7673 21.8522C33.0868 21.5341 33.4789 21.375 33.9437 21.375C34.4085 21.375 34.8028 21.5341 35.1266 21.8522C35.4505 22.1702 35.6124 22.5613 35.6124 23.0254V32.7881C35.6124 33.691 35.2857 34.4669 34.6323 35.1157C33.9789 35.7644 33.1975 36.0888 32.2881 36.0888H7.71201ZM15.3062 25.183C15.0019 24.8653 14.8427 24.488 14.8288 24.0508C14.8149 23.6137 14.9723 23.2248 15.3008 22.884L29.9964 8.21199H23.2754C22.8113 8.21199 22.4203 8.05225 22.1022 7.73278C21.7841 7.41328 21.625 7.02114 21.625 6.55636C21.625 6.09158 21.7841 5.69728 22.1022 5.37344C22.4203 5.04961 22.8113 4.8877 23.2754 4.8877H33.9385C34.4006 4.8877 34.7951 5.05115 35.122 5.37807C35.4489 5.70499 35.6124 6.0995 35.6124 6.56161V17.2247C35.6124 17.6887 35.448 18.0798 35.1193 18.3979C34.7906 18.716 34.3939 18.875 33.9291 18.875C33.4643 18.875 33.0746 18.716 32.76 18.3979C32.4454 18.0798 32.2881 17.6887 32.2881 17.2247V10.5454L17.616 25.2409C17.303 25.5417 16.921 25.6881 16.47 25.6803C16.019 25.6724 15.6311 25.5067 15.3062 25.183Z" fill="#3B3B1B"/>
</svg>
